<svg xmlns="http://www.w3.org/2000/svg" xmlns:xlink="http://www.w3.org/1999/xlink" fill="none" version="1.1" width="130" height="34" viewBox="0 0 130 34"><defs><clipPath id="master_svg0_5_7"><rect x="0" y="0" width="130" height="34" rx="6"/></clipPath><clipPath id="master_svg1_4_00"><rect x="19" y="7" width="20" height="20" rx="0"/></clipPath></defs><g clip-path="url(#master_svg0_5_7)"><rect x="0" y="0" width="130" height="34" rx="6" fill="#1F883D" fill-opacity="1"/><g><path d="M57.096000000000004,18.094Q57.544,18.695999999999998,58.188,19.676000000000002Q58.832,20.656,59.266,21.398L58.244,22.266Q58.034,21.817999999999998,57.572,21.061999999999998L56.592,21.482Q55.682,21.86,54.842,22.224Q54.184,22.503999999999998,53.498,22.854L52.784,21.664Q53.092,21.482,53.183,21.286Q53.274,21.09,53.274,20.810000000000002L53.274,11.304L58.552,11.304L58.552,17.884L54.534,17.884L54.534,20.894L56.83,19.9Q56.396,19.228,56.046,18.724L57.096000000000004,18.094ZM59.49,11.542L64.348,11.542L64.348,19.746000000000002Q64.348,20.39,64.201,20.733Q64.054,21.076,63.704,21.23Q63.354,21.384,62.682,21.439999999999998L62.038,21.496000000000002L61.618,20.054000000000002L62.066,19.997999999999998Q62.542,19.942,62.731,19.865000000000002Q62.92,19.788,62.969,19.662Q63.018,19.536,63.018,19.214L63.018,12.998000000000001L60.806,12.998000000000001L60.806,23.302L59.49,23.302L59.49,11.542ZM57.278,14.006L57.278,12.536L54.534,12.536L54.534,14.006L57.278,14.006ZM54.534,15.196L54.534,16.652L57.278,16.652L57.278,15.196L54.534,15.196ZM67.526,19.676000000000002Q68.674,19.003999999999998,69.486,18.387999999999998Q70.298,17.772,70.928,17.058L70.088,17.1Q68.884,17.183999999999997,68.408,17.240000000000002L68.072,15.924Q68.29599999999999,15.854,68.429,15.756Q68.562,15.658,68.702,15.518Q68.926,15.266,69.269,14.754999999999999Q69.612,14.244,69.92,13.712L67.778,13.712L67.778,12.41L70.9,12.41Q70.732,11.751999999999999,70.52199999999999,11.08L71.908,10.884Q72.03399999999999,11.262,72.37,12.41L74.96000000000001,12.41L74.96000000000001,13.712L71.418,13.712Q71.11,14.314,70.725,14.881Q70.34,15.448,70.04599999999999,15.742L71.992,15.644Q72.468,14.873999999999999,72.874,14.062000000000001L73.96600000000001,14.65Q72.916,16.666,71.565,18.128999999999998Q70.214,19.592,68.24,20.796L67.526,19.676000000000002ZM78.026,11.052L79.342,11.136L79.342,21.706Q79.342,22.336,79.167,22.686Q78.992,23.036,78.593,23.211Q78.194,23.386,77.48,23.456L76.486,23.554L76.038,22.112000000000002L77.074,22.028Q77.46600000000001,22,77.662,21.936999999999998Q77.858,21.874000000000002,77.94200000000001,21.706Q78.026,21.538,78.026,21.201999999999998L78.026,11.052ZM75.422,12.283999999999999L76.738,12.34L76.738,20.488L75.422,20.488L75.422,12.283999999999999ZM74.764,17.618000000000002Q73.882,19.088,72.86,20.194000000000003Q73.924,21.076,75.05799999999999,22.14L74.288,23.428Q73.896,23.022,73.175,22.343Q72.45400000000001,21.664,71.866,21.16Q70.424,22.433999999999997,68.072,23.68L67.246,22.462Q69.57,21.342,71.089,20.067999999999998Q72.608,18.794,73.756,16.904L74.764,17.618000000000002ZM84.62,13.488L84.62,15L83.23400000000001,15L83.23400000000001,12.186L88.092,12.186L87.714,10.926L89.268,10.688Q89.646,11.794,89.77199999999999,12.186L94.14,12.186L94.14,15L92.768,15L92.768,13.488L84.62,13.488ZM94.686,17.183999999999997L92.362,17.183999999999997Q91.98400000000001,18.164,91.536,18.913Q91.088,19.662,90.51400000000001,20.264Q92.22200000000001,20.992,94.476,22.055999999999997L93.78999999999999,23.4Q91.872,22.433999999999997,89.25399999999999,21.272Q88.218,21.93,86.699,22.448Q85.18,22.966,82.968,23.428L82.548,21.986Q84.312,21.678,85.55799999999999,21.349Q86.804,21.02,87.686,20.6Q85.81,19.802,84.22800000000001,19.186Q84.75999999999999,18.416,85.46000000000001,17.183999999999997L82.632,17.183999999999997L82.632,15.868L86.146,15.868Q86.73400000000001,14.692,87.112,13.725999999999999L88.61,14.216000000000001Q88.316,14.916,87.854,15.868L94.686,15.868L94.686,17.183999999999997ZM90.78,17.183999999999997L87.182,17.183999999999997L87.01400000000001,17.492Q86.524,18.332,86.37,18.57Q88.078,19.214,89.142,19.676000000000002Q89.688,19.2,90.07300000000001,18.598Q90.458,17.996000000000002,90.78,17.183999999999997ZM102.76400000000001,14.93L105.158,14.93L105.158,13.404L102.554,13.404L102.554,12.312000000000001L105.158,12.312000000000001L105.158,10.688L106.46000000000001,10.744L106.46000000000001,12.312000000000001L109.344,12.312000000000001L109.344,13.404L106.46000000000001,13.404L106.46000000000001,14.93L108.91,14.93L108.91,16.036L102.76400000000001,16.036L102.76400000000001,14.93ZM100.902,14.902000000000001Q99.586,15.63,98.28399999999999,16.246000000000002L97.738,15.098Q99.46000000000001,14.341999999999999,100.902,13.558L100.902,10.702L102.19,10.758L102.19,16.554000000000002L100.902,16.554000000000002L100.902,14.902000000000001ZM99.824,13.838000000000001Q98.788,12.55,98.074,11.892L98.858,11.108Q99.628,11.766,100.566,12.942L99.824,13.838000000000001ZM102.106,19.942L102.106,21.986L104.598,21.104L104.696,22.42Q104.27600000000001,22.532,103.408,22.798000000000002Q102.53999999999999,23.064,101.714,23.358Q101.21000000000001,23.512,100.78999999999999,23.68L100.356,22.602Q100.664,22.490000000000002,100.73400000000001,22.357Q100.804,22.224,100.804,21.902L100.804,20.726Q99.53,21.439999999999998,97.72399999999999,22.168L97.206,20.922Q98.74600000000001,20.362000000000002,99.894,19.788Q101.042,19.214,101.96600000000001,18.514L97.794,18.514L97.794,17.338L103.114,17.338L102.834,16.386L104.108,16.162L104.47200000000001,17.338L109.33,17.338L109.33,18.514L104.304,18.514Q104.878,19.424,105.55,20.012Q106.572,19.381999999999998,107.65,18.542L108.392,19.564Q107.77600000000001,20.04,106.6,20.782Q107.874,21.552,109.82,22.042L109.25999999999999,23.316Q106.964,22.658,105.571,21.692Q104.178,20.726,103.212,19.116Q102.73599999999999,19.522,102.106,19.942Z" fill="#FFFFFF" fill-opacity="1"/></g><g clip-path="url(#master_svg1_4_00)"><g><path d="M27.751786984558105,8.168949357444763C28.131396984558105,7.950196357444764,28.561836984558106,7.835042357444763,28.999996984558106,7.835042357444763C29.438166984558105,7.835042357444763,29.868666984558104,7.950205357444763,30.248246984558108,8.168975357444763C30.248836984558103,8.169309357444764,30.249416984558106,8.169644357444763,30.249996984558106,8.169979357444763C30.249996984558106,8.169979357444763,36.083366984558104,11.503302357444763,36.083366984558104,11.503302357444763C36.39166698455811,11.681312357444764,36.6575669845581,11.922622357444762,36.86406698455811,12.210302357444764C36.9143669845581,12.260612357444764,36.9589669845581,12.318232357444764,36.99636698455811,12.382732357444763C37.02846698455811,12.438282357444763,37.053466984558106,12.496012357444762,37.07166698455811,12.554842357444763C37.243066984558105,12.899402357444764,37.332966984558105,13.279562357444764,37.333366984558104,13.665812357444764C37.333366984558104,13.665812357444764,37.333366984558104,20.334242357444765,37.333366984558104,20.334242357444765C37.332966984558105,20.772642357444763,37.217166984558105,21.203242357444765,36.997766984558105,21.582742357444765C36.778366984558104,21.962242357444765,36.46296698455811,22.277442357444762,36.083366984558104,22.496742357444763C36.083366984558104,22.496742357444763,36.0800669845581,22.498542357444762,36.0800669845581,22.498542357444762C36.0800669845581,22.498542357444762,30.249996984558106,25.830042357444764,30.249996984558106,25.830042357444764C30.249496984558107,25.830242357444764,30.248996984558104,25.830642357444763,30.248496984558106,25.830842357444762C29.984166984558108,25.983342357444762,29.695166984558107,26.085342357444762,29.396086984558103,26.133342357444764C29.278246984558105,26.197142357444765,29.143336984558104,26.233242357444762,28.999996984558106,26.233242357444762C28.856646984558104,26.233242357444762,28.721746984558106,26.197142357444765,28.603946984558107,26.133342357444764C28.304866984558107,26.085342357444762,28.015876984558105,25.983342357444762,27.751546984558104,25.830842357444762C27.751026984558106,25.830642357444763,27.750516984558104,25.830242357444764,27.749996984558106,25.830042357444764C27.749996984558106,25.830042357444764,21.919886984558104,22.498542357444762,21.919886984558104,22.498542357444762C21.919886984558104,22.498542357444762,21.916666984558105,22.496742357444763,21.916666984558105,22.496742357444763C21.536991984558107,22.277442357444762,21.221641984558104,21.962242357444765,21.002243984558106,21.582742357444765C20.782844984558107,21.203242357444765,20.667116652558107,20.772642357444763,20.666666984558105,20.334242357444765C20.666666984558105,20.334242357444765,20.666666984558105,13.665812357444764,20.666666984558105,13.665812357444764C20.667063156558104,13.279562357444764,20.756936984558106,12.899402357444764,20.928349984558107,12.554842357444763C20.946512984558105,12.496012357444762,20.971521984558105,12.438292357444762,21.003659984558105,12.382732357444763C21.040970984558104,12.318232357444764,21.085603984558105,12.260612357444764,21.135899984558105,12.210302357444764C21.342446984558105,11.922622357444762,21.608349984558107,11.681312357444764,21.916666984558105,11.503312357444763C21.916666984558105,11.503312357444763,21.919886984558104,11.501462357444764,21.919886984558104,11.501462357444764C21.919886984558104,11.501462357444764,24.627146984558106,9.954452357444763,24.627146984558106,9.954452357444763C24.750136984558104,9.815872357444764,24.913486984558105,9.725412357444764,25.088596984558105,9.690772357444763C25.088596984558105,9.690772357444763,27.751786984558105,8.168949357444763,27.751786984558105,8.168949357444763C27.751786984558105,8.168949357444763,27.751786984558105,8.168949357444763,27.751786984558105,8.168949357444763ZM25.291656984558106,11.494322357444762C25.291656984558106,11.494322357444762,23.199156984558105,12.690032357444764,23.199156984558105,12.690032357444764C23.199156984558105,12.690032357444764,28.999996984558106,16.045612357444764,28.999996984558106,16.045612357444764C28.999996984558106,16.045612357444764,31.088766984558106,14.837332357444764,31.088766984558106,14.837332357444764C31.088766984558106,14.837332357444764,25.291656984558106,11.494322357444762,25.291656984558106,11.494322357444762C25.291656984558106,11.494322357444762,25.291656984558106,11.494322357444762,25.291656984558106,11.494322357444762ZM32.754366984558104,13.873872357444764C32.754366984558104,13.873872357444764,26.967416984558106,10.536742357444764,26.967416984558106,10.536742357444764C26.967416984558106,10.536742357444764,28.580116984558106,9.615202357444764,28.580116984558106,9.615202357444764C28.580116984558106,9.615202357444764,28.583336984558105,9.613352357444763,28.583336984558105,9.613352357444763C28.710016984558106,9.540222357444764,28.853716984558105,9.501712357444763,28.999996984558106,9.501712357444763C29.146246984558104,9.501712357444763,29.289996984558105,9.540222357444764,29.416666984558105,9.613352357444763C29.416666984558105,9.613352357444763,34.800866984558105,12.690032357444764,34.800866984558105,12.690032357444764C34.800866984558105,12.690032357444764,32.754366984558104,13.873872357444764,32.754366984558104,13.873872357444764C32.754366984558104,13.873872357444764,32.754366984558104,13.873872357444764,32.754366984558104,13.873872357444764ZM35.666666984558105,14.114612357444763C35.666666984558105,14.114612357444763,29.833336984558105,17.488962357444763,29.833336984558105,17.488962357444763C29.833336984558105,17.488962357444763,29.833336984558105,24.148542357444764,29.833336984558105,24.148542357444764C29.833336984558105,24.148542357444764,35.24996698455811,21.053342357444762,35.24996698455811,21.053342357444762C35.250366984558106,21.053042357444763,35.250966984558104,21.052842357444764,35.2513669845581,21.052542357444764C35.377266984558105,20.979542357444764,35.48186698455811,20.874742357444763,35.5548669845581,20.748642357444766C35.62796698455811,20.622142357444766,35.666466984558106,20.478642357444762,35.666666984558105,20.332442357444762C35.666666984558105,20.332442357444762,35.666666984558105,14.114612357444763,35.666666984558105,14.114612357444763C35.666666984558105,14.114612357444763,35.666666984558105,14.114612357444763,35.666666984558105,14.114612357444763ZM28.166666984558105,24.148542357444764C28.166666984558105,24.148542357444764,28.166666984558105,17.488962357444763,28.166666984558105,17.488962357444763C28.166666984558105,17.488962357444763,22.333336984558105,14.114612357444763,22.333336984558105,14.114612357444763C22.333336984558105,14.114612357444763,22.333336984558105,20.33284235744476,22.333336984558105,20.33284235744476C22.333546984558104,20.478842357444762,22.372116984558104,20.62224235744476,22.445186984558106,20.748642357444766C22.518076984558107,20.874742357444763,22.622716984558107,20.979542357444764,22.748686984558105,21.052542357444764C22.749126984558107,21.052842357444764,22.749556984558104,21.053042357444763,22.749996984558106,21.053342357444762C22.749996984558106,21.053342357444762,28.166666984558105,24.148542357444764,28.166666984558105,24.148542357444764C28.166666984558105,24.148542357444764,28.166666984558105,24.148542357444764,28.166666984558105,24.148542357444764Z" fill-rule="evenodd" fill="#FFFFFF" fill-opacity="1"/></g></g></g></svg>